<svg xmlns="http://www.w3.org/2000/svg" viewBox="0 0 1200 850">
    <!-- Background -->
    <rect width="1200" height="850" fill="#ffffff"/>
    
    <!-- Main Heading -->
    <text x="60" y="70" font-family="Inter" font-size="48" fill="#0A4D68" font-weight="bold">The Startup Business Model Canvas</text>
    
    <!-- Grid Layout -->
    <!-- Main Columns -->
    <rect x="60" y="120" width="200" height="450" fill="#F0F9FF" stroke="#0A4D68" stroke-width="2" rx="12"/>
    <rect x="270" y="120" width="200" height="220" fill="#F0F9FF" stroke="#0A4D68" stroke-width="2" rx="12"/>
    <rect x="270" y="350" width="200" height="220" fill="#F0F9FF" stroke="#0A4D68" stroke-width="2" rx="12"/>
    <rect x="480" y="120" width="240" height="450" fill="#F0F9FF" stroke="#0A4D68" stroke-width="2" rx="12"/>
    <rect x="730" y="120" width="200" height="220" fill="#F0F9FF" stroke="#0A4D68" stroke-width="2" rx="12"/>
    <rect x="730" y="350" width="200" height="220" fill="#F0F9FF" stroke="#0A4D68" stroke-width="2" rx="12"/>
    <rect x="940" y="120" width="200" height="450" fill="#F0F9FF" stroke="#0A4D68" stroke-width="2" rx="12"/>
    <rect x="60" y="580" width="535" height="160" fill="#F0F9FF" stroke="#0A4D68" stroke-width="2" rx="12"/>
    <rect x="605" y="580" width="535" height="160" fill="#F0F9FF" stroke="#0A4D68" stroke-width="2" rx="12"/>
    
    <!-- Title Backgrounds -->
    <rect x="75" y="135" width="170" height="60" fill="#E0F2FE" rx="6"/>
    <rect x="285" y="135" width="170" height="60" fill="#E0F2FE" rx="6"/>
    <rect x="495" y="135" width="210" height="60" fill="#E0F2FE" rx="6"/>
    <rect x="745" y="135" width="170" height="60" fill="#E0F2FE" rx="6"/>
    <rect x="955" y="135" width="170" height="60" fill="#E0F2FE" rx="6"/>
    <rect x="285" y="365" width="170" height="60" fill="#E0F2FE" rx="6"/>
    <rect x="745" y="365" width="170" height="60" fill="#E0F2FE" rx="6"/>
    <rect x="75" y="595" width="170" height="40" fill="#E0F2FE" rx="6"/>
    <rect x="620" y="595" width="170" height="40" fill="#E0F2FE" rx="6"/>
    
    <!-- Section Titles -->
    <text x="85" y="163" font-family="Arial" font-size="18" fill="#0A4D68" font-weight="bold">KEY</text>
    <text x="85" y="183" font-family="Arial" font-size="18" fill="#0A4D68" font-weight="bold">PROCESSES</text>
    
    <text x="295" y="163" font-family="Arial" font-size="18" fill="#0A4D68" font-weight="bold">KEY</text>
    <text x="295" y="183" font-family="Arial" font-size="18" fill="#0A4D68" font-weight="bold">PARTNERSHIPS</text>
    
    <text x="505" y="163" font-family="Arial" font-size="18" fill="#0A4D68" font-weight="bold">VALUE</text>
    <text x="505" y="183" font-family="Arial" font-size="18" fill="#0A4D68" font-weight="bold">PROPOSITIONS</text>
    
    <text x="755" y="163" font-family="Arial" font-size="18" fill="#0A4D68" font-weight="bold">CUSTOMER</text>
    <text x="755" y="183" font-family="Arial" font-size="18" fill="#0A4D68" font-weight="bold">RELATIONSHIPS</text>
    
    <text x="965" y="163" font-family="Arial" font-size="18" fill="#0A4D68" font-weight="bold">CUSTOMER</text>
    <text x="965" y="183" font-family="Arial" font-size="18" fill="#0A4D68" font-weight="bold">SEGMENTS</text>
    
    <text x="295" y="393" font-family="Arial" font-size="18" fill="#0A4D68" font-weight="bold">KEY</text>
    <text x="295" y="413" font-family="Arial" font-size="18" fill="#0A4D68" font-weight="bold">RESOURCES</text>
    
    <text x="755" y="393" font-family="Arial" font-size="18" fill="#0A4D68" font-weight="bold">CHANNELS</text>
    
    <text x="85" y="620" font-family="Arial" font-size="18" fill="#0A4D68" font-weight="bold">COST STRUCTURE</text>
    <text x="630" y="620" font-family="Arial" font-size="18" fill="#0A4D68" font-weight="bold">REVENUE STREAMS</text>
    
    <!-- Bottom Section -->
    <!-- Bottom Right Attribution -->
    <text x="1140" y="770" font-family="Inter" font-size="28" fill="#0A4D68" font-weight="bold" text-anchor="end">NOTIONOMICS LABS</text>
    <text x="1140" y="795" font-family="Inter" font-size="16" fill="#0A4D68" text-anchor="end">notionomics.com</text>
    
    <!-- Bottom Left License Text -->
    <text x="60" y="770" font-family="Inter" font-size="10" fill="#555555">The Startup Business Model Canvas is adapted from the Business Model Canvas (Strategyzer.com) by Notionomics Labs.</text>
    <text x="60" y="785" font-family="Inter" font-size="10" fill="#555555">This work is licensed under the Creative Commons Attribution-ShareAlike 3.0 Unported License. To view a copy of this license,</text>
    <text x="60" y="800" font-family="Inter" font-size="10" fill="#555555">visit http://creativecommons.org/licenses/by-sa/3.0/ or send a letter to Creative Commons, PO Box 1866, Mountain View, CA 94042, USA.</text>
</svg>
